<svg width="629" height="125" viewBox="0 0 629 125" fill="none"
    xmlns="http://www.w3.org/2000/svg">
    <path d="M78.094 64.9184L76.6248 71.1723C78.8713 72.0466 81.057 72.7994 82.2834 74.4387C83.8499 76.5395 88.7195 77.3532 89.8245 77.1953C90.9295 77.0374 92.6538 75.738 92.6538 75.738C92.6538 75.738 95.0096 74.4388 95.7989 72.6659C96.5882 70.8808 95.7989 68.6221 96.2725 66.837C96.7461 65.052 96.7461 63.5948 95.9568 61.9797C95.4346 60.9111 91.4274 56.6731 88.088 52.8844C88.0272 53.018 87.9665 53.1515 87.9058 53.2729C85.295 58.3488 78.3976 64.6391 78.1062 64.9063L78.094 64.9184Z" fill="#609540"/>
    <path d="M59.7573 67.104C63.1332 68.2576 66.0961 67.4927 67.0312 67.4927C68.6462 67.4927 71.0627 68.6827 73.4913 69.8363L74.8878 63.8982C74.8878 63.8982 74.9243 63.789 74.9365 63.7405L66.7761 52.9935L59.2959 66.8369L59.7452 67.1162L59.7573 67.104Z" fill="#609540"/>
    <path d="M94.5957 93.066C75.8343 93.066 59.8781 80.6921 53.9765 63.4365C52.7621 62.1129 51.7421 60.4857 50.9285 58.5792C50.2727 57.037 49.9934 55.3854 50.0905 53.6611C50.1391 52.7503 50.2848 51.8031 50.552 50.8559L50.9528 50.9775C50.6978 51.9246 50.5521 52.8474 50.5035 53.746C50.4185 55.3854 50.6855 56.952 51.317 58.4092C51.9606 59.9271 52.7378 61.2506 53.6364 62.3799C54.4379 63.3999 55.3243 64.2621 56.32 64.9664L56.4657 65.0515L64.5654 50.0546L61.2016 45.6222L54.2193 36.4297C52.8714 34.8389 51.5235 33.6368 50.2121 32.7382C48.3056 31.4146 44.3468 29.6781 42.7682 29.3745C-2.51411 59.6113 18.9187 116.916 61.6874 115.604C47.8076 110.492 39.5866 100.388 35.1422 90.3338C36.648 95.4704 38.5665 100.304 38.5665 100.304C38.5665 100.304 34.3042 91.7303 32.9563 87.3344C32.2035 84.9058 31.5842 81.7971 31.1835 79.4899C31.0863 90.2731 35.1544 101.688 35.1544 101.688C35.1544 101.688 29.8963 89.9452 29.3863 79.2834C29.2406 76.284 29.3377 73.6004 29.5563 71.2932C29.5077 71.4875 29.4712 71.6817 29.4348 71.876C28.6819 77.5591 28.9733 85.1365 29.119 87.9173C29.544 91.3902 30.0905 93.7218 30.0905 93.7218C30.0905 93.7218 27.9534 87.7351 27.3826 78.5062C27.2005 80.4734 27.1398 81.785 27.1398 81.785C27.1398 81.785 26.8119 77.4741 27.2734 71.8639C27.3462 69.4109 27.5404 66.8122 27.9168 64.0921C26.0104 69.5202 24.9904 75.179 24.9904 75.179C24.9904 75.179 25.6096 64.6144 29.5805 55.5069C29.6412 55.3855 29.6898 55.264 29.7505 55.1304C29.9084 54.5232 30.0784 53.9282 30.2484 53.3575C27.504 57.6441 25.4519 63.9221 25.4519 63.9221C25.4519 63.9221 26.9697 56.1504 30.8434 49.7995C31.2927 49.0587 31.7298 48.4031 32.1548 47.7838C36.065 38.0084 40.5216 35.2275 40.9709 35.094C41.068 34.9604 41.1652 34.8147 41.2623 34.6811C40.983 35.3369 40.7281 35.9926 40.4731 36.6605L39.0888 40.7528C37.3644 46.5694 36.5144 52.7746 36.6966 59.1984C37.4495 84.845 55.8221 106.727 78.6272 113.236C88.5726 109.727 102.537 100.121 107.686 90.8681C104.857 92.1796 96.6844 93.0539 94.62 93.0539L94.5957 93.066Z" fill="#609540"/>
    <path d="M46.072 26.5577C46.1692 26.7762 46.2784 26.9949 46.3756 27.2134C47.3471 27.4563 48.3671 27.8085 49.4236 28.3185C50.055 28.0999 50.6985 27.8935 51.33 27.6992L51.4392 28.112C50.9414 28.2578 50.4557 28.4156 49.9578 28.5856C50.6014 28.9257 51.2571 29.3142 51.925 29.7757C53.5036 30.8564 55.1308 32.3015 56.7459 34.208C56.7701 34.2323 56.7823 34.2566 56.8066 34.2809L63.1332 42.6234L77.1831 61.1176C79.2596 59.1018 83.2548 54.9852 84.9427 51.6944C85.1491 51.2936 85.3434 50.6864 85.5377 49.9578C84.9062 49.1806 84.3719 48.4885 83.9955 47.9178C81.6397 44.3598 79.9153 39.3324 79.4417 36.9038C78.9682 34.4751 73.4672 29.132 69.2292 26.8612C69.0349 26.7641 68.8285 26.667 68.622 26.5941C69.8728 23.789 71.1721 20.3039 71.2207 17.7538C71.33 12.7629 71.0142 12.0465 71.3421 10.5043C71.67 8.94992 71.8643 7.65068 70.8807 7.7114C69.8971 7.77211 66.0356 8.64638 64.1412 11.7551C62.2347 14.8637 59.976 17.3895 59.3324 20.9839C58.9924 22.8904 58.7618 24.5906 58.6889 26.2299C58.7982 26.2299 58.9075 26.2177 59.0046 26.2056C59.7454 26.157 61.0203 26.0963 61.1903 26.157L61.0568 26.5577C61.0568 26.5577 61.0204 26.5577 60.8261 26.5577C60.5711 26.5577 60.049 26.5577 59.0168 26.6306C58.9561 26.6306 58.8953 26.6306 58.8468 26.6427C58.2153 26.6913 57.5839 26.7642 57.0374 26.8492C57.0131 26.7035 56.9888 26.5698 56.9645 26.4241C56.4181 23.2304 55.4466 19.1018 53.9044 16.7946C51.16 12.678 50.5043 12.2894 49.885 10.8322C49.2779 9.37496 48.6829 8.19704 47.93 8.84064C47.1649 9.48423 44.5299 12.508 44.7484 16.1752C44.967 19.8425 44.5541 23.2547 46.072 26.5577Z" fill="#609540"/>
    <path d="M62.4652 0C27.9661 0 0 27.9661 0 62.4652C0 96.9642 27.9661 124.93 62.4652 124.93C96.9642 124.93 124.93 96.9642 124.93 62.4652C124.93 27.9661 96.9642 0 62.4652 0ZM62.4652 119.927C30.7347 119.927 5.00303 94.1956 5.00303 62.4652C5.00303 30.7347 30.7347 5.00303 62.4652 5.00303C94.1956 5.00303 119.927 30.7347 119.927 62.4652C119.927 94.1956 94.1956 119.927 62.4652 119.927Z" fill="#F15D57"/>
    <path d="M171.682 36.9211H161.89V73.4651H155.362V36.9211H145.57V30.7771H171.682V36.9211ZM196.975 30.0091C209.775 30.0091 219.183 39.6091 219.183 52.1531C219.183 64.6971 209.775 74.2971 196.975 74.2971C184.175 74.2971 174.767 64.6971 174.767 52.1531C174.767 39.6091 184.175 30.0091 196.975 30.0091ZM196.975 68.2811C206.127 68.2811 212.655 61.6251 212.655 52.1531C212.655 42.6811 206.127 36.0251 196.975 36.0251C187.823 36.0251 181.295 42.6811 181.295 52.1531C181.295 61.6251 187.823 68.2811 196.975 68.2811ZM228.018 30.7771H237.426C240.05 30.7771 243.698 31.0331 246.77 33.0811C250.354 35.4491 252.082 39.5451 252.082 43.4491C252.082 45.9451 251.442 49.7851 247.922 52.7931C244.53 55.6731 240.626 56.1211 237.49 56.1211H234.546V73.4651H228.018V30.7771ZM234.546 36.7931V50.1051H237.49C243.122 50.1051 245.81 47.3531 245.81 43.3851C245.81 41.0171 244.85 36.7931 237.426 36.7931H234.546ZM296.617 36.9211H286.825V73.4651H280.297V36.9211H270.505V30.7771H296.617V36.9211ZM303 30.7771H310.616C315.8 30.7771 319.128 31.4171 321.88 33.2731C326.552 36.4091 326.936 41.4651 326.936 43.3211C326.936 49.4651 323.16 53.9451 317.464 55.2251L330.776 73.4651H322.904L310.68 55.9931H309.528V73.4651H303V30.7771ZM309.528 36.7931V50.3611H311.576C313.368 50.3611 320.664 50.1691 320.664 43.3851C320.664 37.3691 314.968 36.7931 311.768 36.7931H309.528ZM367.396 73.4651L362.916 63.1611H344.676L340.004 73.4651H332.964L354.212 28.2811L374.436 73.4651H367.396ZM347.364 57.0171H360.292L353.956 42.5531L347.364 57.0171ZM380.468 30.7771H386.996V73.4651H380.468V30.7771ZM397.858 30.7771H404.386V67.3211H416.93V73.4651H397.858V30.7771ZM445.791 30.7771V47.6731H464.095V30.7771H470.623V73.4651H464.095V53.8171H445.791V73.4651H439.263V30.7771H445.791ZM501.688 30.0091C514.488 30.0091 523.896 39.6091 523.896 52.1531C523.896 64.6971 514.488 74.2971 501.688 74.2971C488.888 74.2971 479.48 64.6971 479.48 52.1531C479.48 39.6091 488.888 30.0091 501.688 30.0091ZM501.688 68.2811C510.84 68.2811 517.368 61.6251 517.368 52.1531C517.368 42.6811 510.84 36.0251 501.688 36.0251C492.536 36.0251 486.008 42.6811 486.008 52.1531C486.008 61.6251 492.536 68.2811 501.688 68.2811ZM532.73 30.7771H540.346C545.53 30.7771 548.858 31.4171 551.61 33.2731C556.282 36.4091 556.666 41.4651 556.666 43.3211C556.666 49.4651 552.89 53.9451 547.194 55.2251L560.506 73.4651H552.634L540.41 55.9931H539.258V73.4651H532.73V30.7771ZM539.258 36.7931V50.3611H541.306C543.098 50.3611 550.394 50.1691 550.394 43.3851C550.394 37.3691 544.698 36.7931 541.498 36.7931H539.258ZM591.238 37.1771L585.99 40.2491C585.606 39.2891 585.03 38.3931 584.07 37.5611C582.726 36.4731 581.318 36.0251 579.462 36.0251C575.494 36.0251 573.446 38.3931 573.446 41.1451C573.446 42.4251 573.894 44.6651 578.054 46.3291L582.342 48.0571C590.214 51.2571 592.39 55.7371 592.39 60.6011C592.39 68.7291 586.63 74.2971 578.63 74.2971C573.702 74.2971 570.758 72.4411 568.582 70.0091C566.278 67.4491 565.254 64.6331 564.998 61.6891L571.462 60.2811C571.462 62.3931 572.23 64.3771 573.254 65.7211C574.47 67.2571 576.262 68.2811 578.822 68.2811C582.79 68.2811 585.862 65.4011 585.862 61.1131C585.862 56.7611 582.534 54.9691 579.718 53.8171L575.622 52.0891C572.102 50.6171 566.918 47.6731 566.918 41.2731C566.918 35.5131 571.398 30.0091 579.398 30.0091C584.006 30.0091 586.63 31.7371 587.974 32.8891C589.126 33.9131 590.342 35.3851 591.238 37.1771ZM624.75 30.7771V36.9211H607.726V47.7371H624.238V53.8811H607.726V67.3211H624.75V73.4651H601.198V30.7771H624.75Z" fill="#F47C20"/>
    <path d="M208.91 93.1691C213.71 93.1691 217.238 96.7691 217.238 101.473C217.238 106.177 213.71 109.777 208.91 109.777C204.11 109.777 200.582 106.177 200.582 101.473C200.582 96.7691 204.11 93.1691 208.91 93.1691ZM208.91 107.521C212.342 107.521 214.79 105.025 214.79 101.473C214.79 97.9211 212.342 95.4251 208.91 95.4251C205.478 95.4251 203.03 97.9211 203.03 101.473C203.03 105.025 205.478 107.521 208.91 107.521ZM222.999 109.465H220.551V92.3771L232.167 104.545V93.4571H234.615V110.449L222.999 98.2811V109.465ZM238.697 93.4571H241.145V107.161H245.849V109.465H238.697V93.4571ZM248.383 93.4571H250.831V109.465H248.383V93.4571ZM257.352 109.465H254.904V92.3771L266.52 104.545V93.4571H268.968V110.449L257.352 98.2811V109.465ZM281.882 93.4571V95.7611H275.498V99.8171H281.69V102.121H275.498V107.161H281.882V109.465H273.05V93.4571H281.882ZM299.244 95.7611H295.572V109.465H293.124V95.7611H289.452V93.4571H299.244V95.7611ZM301.637 93.4571H304.493C306.437 93.4571 307.685 93.6971 308.717 94.3931C310.469 95.5691 310.613 97.4651 310.613 98.1611C310.613 100.465 309.197 102.145 307.061 102.625L312.053 109.465H309.101L304.517 102.913H304.085V109.465H301.637V93.4571ZM304.085 95.7131V100.801H304.853C305.525 100.801 308.261 100.729 308.261 98.1851C308.261 95.9291 306.125 95.7131 304.925 95.7131H304.085ZM325.786 109.465L324.106 105.601H317.266L315.514 109.465H312.874L320.842 92.5211L328.426 109.465H325.786ZM318.274 103.297H323.122L320.746 97.8731L318.274 103.297ZM330.688 93.4571H333.136V109.465H330.688V93.4571ZM337.209 93.4571H339.657V107.161H344.361V109.465H337.209V93.4571ZM352.736 93.4571H355.592C357.536 93.4571 358.784 93.6971 359.816 94.3931C361.568 95.5691 361.712 97.4651 361.712 98.1611C361.712 100.465 360.296 102.145 358.16 102.625L363.152 109.465H360.2L355.616 102.913H355.184V109.465H352.736V93.4571ZM355.184 95.7131V100.801H355.952C356.624 100.801 359.36 100.729 359.36 98.1851C359.36 95.9291 357.224 95.7131 356.024 95.7131H355.184ZM365.796 93.4571H368.244V109.465H365.796V93.4571ZM372.317 93.4571H375.677C377.909 93.4571 379.853 93.6971 381.629 95.0171C383.573 96.4811 384.701 98.8091 384.701 101.473C384.701 104.137 383.597 106.441 381.485 107.929C379.613 109.249 377.861 109.465 375.629 109.465H372.317V93.4571ZM374.765 95.7611V107.161H375.821C377.021 107.161 378.677 107.065 380.069 106.033C381.173 105.193 382.253 103.657 382.253 101.473C382.253 99.3611 381.245 97.7051 380.093 96.8651C378.701 95.8571 376.997 95.7611 375.821 95.7611H374.765ZM388.003 93.4571H390.451V109.465H388.003V93.4571ZM396.972 109.465H394.524V92.3771L406.14 104.545V93.4571H408.588V110.449L396.972 98.2811V109.465ZM420.95 103.393V101.137H427.55V101.257C427.55 103.993 426.734 106.225 425.174 107.737C423.518 109.345 421.55 109.777 419.726 109.777C417.398 109.777 415.742 109.105 414.278 107.593C412.718 105.985 411.902 103.849 411.902 101.545C411.902 99.0491 412.91 96.8891 414.23 95.5691C415.598 94.1771 417.782 93.1691 420.254 93.1691C421.694 93.1691 423.182 93.4811 424.43 94.1771C425.75 94.9211 426.566 95.8571 427.022 96.5771L425.078 97.9451C424.598 97.2731 423.878 96.5531 423.11 96.1211C422.222 95.5931 421.262 95.4251 420.278 95.4251C418.19 95.4251 416.846 96.2891 416.054 97.0811C414.998 98.1371 414.35 99.8411 414.35 101.569C414.35 103.177 414.95 104.785 416.006 105.913C417.11 107.089 418.478 107.521 420.014 107.521C421.406 107.521 422.558 107.113 423.59 106.105C424.478 105.241 424.838 104.305 424.934 103.393H420.95ZM448.561 94.3211V97.2011C446.785 95.5931 445.129 95.4251 444.217 95.4251C440.737 95.4251 438.385 97.9931 438.385 101.521C438.385 104.905 440.833 107.521 444.241 107.521C446.161 107.521 447.649 106.537 448.561 105.673V108.577C446.953 109.537 445.273 109.777 444.169 109.777C441.265 109.777 439.441 108.457 438.505 107.569C436.633 105.817 435.937 103.777 435.937 101.521C435.937 98.5691 437.161 96.5291 438.505 95.2571C440.161 93.6971 442.081 93.1691 444.289 93.1691C445.753 93.1691 447.169 93.4331 448.561 94.3211ZM454.276 93.4571V99.7931H461.14V93.4571H463.588V109.465H461.14V102.097H454.276V109.465H451.828V93.4571H454.276ZM478.765 109.465L477.085 105.601H470.245L468.493 109.465H465.853L473.821 92.5211L481.405 109.465H478.765ZM471.253 103.297H476.101L473.725 97.8731L471.253 103.297ZM483.667 93.4571H486.115V107.161H490.819V109.465H483.667V93.4571ZM493.352 93.4571H495.8V107.161H500.504V109.465H493.352V93.4571ZM511.87 93.4571V95.7611H505.486V99.8171H511.678V102.121H505.486V107.161H511.87V109.465H503.038V93.4571H511.87ZM517.726 109.465H515.278V92.3771L526.894 104.545V93.4571H529.342V110.449L517.726 98.2811V109.465ZM541.704 103.393V101.137H548.304V101.257C548.304 103.993 547.488 106.225 545.928 107.737C544.272 109.345 542.304 109.777 540.48 109.777C538.152 109.777 536.496 109.105 535.032 107.593C533.472 105.985 532.656 103.849 532.656 101.545C532.656 99.0491 533.664 96.8891 534.984 95.5691C536.352 94.1771 538.536 93.1691 541.008 93.1691C542.448 93.1691 543.936 93.4811 545.184 94.1771C546.504 94.9211 547.32 95.8571 547.776 96.5771L545.832 97.9451C545.352 97.2731 544.632 96.5531 543.864 96.1211C542.976 95.5931 542.016 95.4251 541.032 95.4251C538.944 95.4251 537.6 96.2891 536.808 97.0811C535.752 98.1371 535.104 99.8411 535.104 101.569C535.104 103.177 535.704 104.785 536.76 105.913C537.864 107.089 539.232 107.521 540.768 107.521C542.16 107.521 543.312 107.113 544.344 106.105C545.232 105.241 545.592 104.305 545.688 103.393H541.704ZM560.449 93.4571V95.7611H554.065V99.8171H560.257V102.121H554.065V107.161H560.449V109.465H551.617V93.4571H560.449ZM572.737 95.8571L570.769 97.0091C570.625 96.6491 570.409 96.3131 570.049 96.0011C569.545 95.5931 569.017 95.4251 568.321 95.4251C566.833 95.4251 566.065 96.3131 566.065 97.3451C566.065 97.8251 566.233 98.6651 567.793 99.2891L569.401 99.9371C572.353 101.137 573.169 102.817 573.169 104.641C573.169 107.689 571.009 109.777 568.009 109.777C566.161 109.777 565.057 109.081 564.241 108.169C563.377 107.209 562.993 106.153 562.897 105.049L565.321 104.521C565.321 105.313 565.609 106.057 565.993 106.561C566.449 107.137 567.121 107.521 568.081 107.521C569.569 107.521 570.721 106.441 570.721 104.833C570.721 103.201 569.473 102.529 568.417 102.097L566.881 101.449C565.561 100.897 563.617 99.7931 563.617 97.3931C563.617 95.2331 565.297 93.1691 568.297 93.1691C570.025 93.1691 571.009 93.8171 571.513 94.2491C571.945 94.6331 572.401 95.1851 572.737 95.8571Z" fill="#609541"/>
</svg>
