<svg width="1536" height="1536" viewBox="0 0 1536 1536" fill="none"
    xmlns="http://www.w3.org/2000/svg">
    <rect width="1536" height="1536"/>
    <path d="M912.491 790.678L898.907 848.496C919.676 856.579 939.883 863.539 951.222 878.695C965.704 898.117 1010.72 905.639 1020.94 904.179C1031.16 902.72 1047.1 890.707 1047.1 890.707C1047.1 890.707 1068.88 878.695 1076.17 862.304C1083.47 845.801 1076.18 824.919 1080.55 808.416C1084.93 791.912 1084.93 778.44 1077.63 763.509C1072.81 753.63 1035.76 714.449 1004.89 679.421C1004.32 680.656 1003.76 681.891 1003.2 683.013C979.064 729.941 915.297 788.096 912.603 790.566L912.491 790.678Z" fill="#667085"/>
    <path d="M742.963 810.886C774.174 821.551 801.567 814.479 810.211 814.479C825.143 814.479 847.483 825.48 869.936 836.146L882.847 781.247C882.847 781.247 883.185 780.238 883.297 779.789L807.853 680.432L738.697 808.416L742.851 810.998L742.963 810.886Z" fill="#667085"/>
    <path d="M1065.05 1050.91C891.602 1050.91 744.084 936.51 689.523 776.979C678.296 764.742 668.865 749.699 661.344 732.073C655.281 717.815 652.698 702.546 653.596 686.604C654.045 678.184 655.393 669.427 657.863 660.67L661.568 661.794C659.211 670.55 657.864 679.082 657.414 687.389C656.629 702.545 659.098 717.029 664.935 730.501C670.886 744.534 678.071 756.77 686.379 767.211C693.788 776.641 701.983 784.612 711.189 791.124L712.536 791.91L787.419 653.261L756.321 612.284L691.767 527.297C679.306 512.59 666.845 501.477 654.72 493.169C637.094 480.932 600.495 464.877 585.901 462.071C167.258 741.615 365.408 1271.4 760.812 1259.28C632.491 1212.01 556.486 1118.61 515.397 1025.65C529.318 1073.14 547.055 1117.82 547.055 1117.82C547.055 1117.82 507.65 1038.56 495.188 997.919C488.228 975.466 482.503 946.726 478.798 925.396C477.9 1025.09 515.509 1130.62 515.509 1130.62C515.509 1130.62 466.898 1022.06 462.182 923.487C460.835 895.757 461.734 870.946 463.754 849.616C463.305 851.412 462.967 853.208 462.631 855.004C455.67 907.545 458.364 977.599 459.712 1003.31C463.641 1035.42 468.693 1056.97 468.693 1056.97C468.693 1056.97 448.935 1001.62 443.658 916.301C441.974 934.489 441.413 946.614 441.413 946.614C441.413 946.614 438.382 906.759 442.648 854.892C443.322 832.214 445.117 808.189 448.597 783.041C430.971 833.224 421.542 885.54 421.542 885.54C421.542 885.54 427.267 787.869 463.978 703.669C464.539 702.546 464.988 701.423 465.55 700.188C467.009 694.575 468.581 689.074 470.153 683.797C444.781 723.428 425.808 781.469 425.808 781.469C425.808 781.469 439.841 709.618 475.654 650.903C479.808 644.054 483.849 637.993 487.778 632.267C523.928 541.893 565.13 516.183 569.284 514.948C570.182 513.713 571.08 512.366 571.978 511.131C569.396 517.194 567.04 523.256 564.682 529.431L551.883 567.265C535.942 621.04 528.083 678.408 529.767 737.797C536.728 974.904 706.586 1177.21 917.423 1237.38C1009.37 1204.94 1138.48 1116.14 1186.08 1030.59C1159.92 1042.71 1084.36 1050.8 1065.28 1050.8L1065.05 1050.91Z" fill="#667085"/>
    <path d="M616.445 436.03C617.343 438.05 618.353 440.072 619.251 442.092C628.233 444.338 637.663 447.594 647.43 452.309C653.268 450.288 659.218 448.38 665.056 446.583L666.066 450.4C661.463 451.747 656.972 453.207 652.37 454.779C658.32 457.922 664.382 461.514 670.557 465.781C685.151 475.772 700.195 489.132 715.126 506.758C715.351 506.983 715.464 507.208 715.688 507.432L774.179 584.56L904.072 755.542C923.27 736.905 960.205 698.847 975.811 668.423C977.719 664.718 979.515 659.104 981.311 652.368C975.474 645.183 970.534 638.784 967.053 633.508C945.274 600.614 929.332 554.134 924.953 531.681C920.575 509.228 869.718 459.83 830.537 438.836C828.74 437.938 826.832 437.04 824.923 436.367C836.487 410.433 848.5 378.212 848.949 354.636C849.959 308.495 847.04 301.871 850.071 287.613C853.102 273.243 854.898 261.232 845.805 261.793C836.711 262.354 801.011 270.437 783.498 299.177C765.872 327.917 744.989 351.269 739.039 384.5C735.896 402.125 733.764 417.844 733.09 433C734.1 433 735.111 432.887 736.009 432.775C742.857 432.326 754.644 431.764 756.216 432.325L754.981 436.03C754.981 436.03 754.645 436.03 752.849 436.03C750.491 436.03 745.664 436.03 736.121 436.704C735.56 436.704 734.999 436.704 734.55 436.816C728.712 437.265 722.874 437.939 717.822 438.725C717.597 437.378 717.372 436.142 717.148 434.795C712.096 405.269 703.114 367.099 688.856 345.768C663.484 307.71 657.422 304.117 651.697 290.645C646.083 277.173 640.582 266.283 633.622 272.233C626.549 278.183 602.187 306.138 604.208 340.042C606.229 373.947 602.411 405.493 616.445 436.03Z" fill="#667085"/>
    <path d="M768.001 190.5C449.051 190.5 190.5 449.051 190.5 768.001C190.5 1086.95 449.051 1345.5 768.001 1345.5C1086.95 1345.5 1345.5 1086.95 1345.5 768.001C1345.5 449.051 1086.95 190.5 768.001 190.5ZM768.001 1299.25C474.648 1299.25 236.754 1061.35 236.754 768.001C236.754 474.648 474.648 236.754 768.001 236.754C1061.35 236.754 1299.25 474.648 1299.25 768.001C1299.25 1061.35 1061.35 1299.25 768.001 1299.25Z" fill="#667085"/>
</svg>
