<svg width="14" height="15" viewBox="0 0 14 15" fill="none"
    xmlns="http://www.w3.org/2000/svg">
    <path d="M7.875 3.75781V10.375C7.875 10.8672 7.46484 11.25 7 11.25C6.50781 11.25 6.125 10.8672 6.125 10.375V3.75781L4.10156 5.75391C3.77344 6.10938 3.19922 6.10938 2.87109 5.75391C2.51562 5.42578 2.51562 4.85156 2.87109 4.52344L6.37109 1.02344C6.69922 0.667969 7.27344 0.667969 7.60156 1.02344L11.1016 4.52344C11.457 4.85156 11.457 5.42578 11.1016 5.75391C10.7734 6.10938 10.1992 6.10938 9.87109 5.75391L7.875 3.75781ZM1.75 10.375H5.25C5.25 11.3594 6.01562 12.125 7 12.125C7.95703 12.125 8.75 11.3594 8.75 10.375H12.25C13.207 10.375 14 11.168 14 12.125V13C14 13.9844 13.207 14.75 12.25 14.75H1.75C0.765625 14.75 0 13.9844 0 13V12.125C0 11.168 0.765625 10.375 1.75 10.375ZM11.8125 13.2188C12.168 13.2188 12.4688 12.9453 12.4688 12.5625C12.4688 12.207 12.168 11.9062 11.8125 11.9062C11.4297 11.9062 11.1562 12.207 11.1562 12.5625C11.1562 12.9453 11.4297 13.2188 11.8125 13.2188Z" fill="#323639"/>
</svg>
